<?xml version="1.0" ?><!DOCTYPE svg  PUBLIC '-//W3C//DTD SVG 1.1//EN'  'http://www.w3.org/Graphics/SVG/1.1/DTD/svg11.dtd'><svg enable-background="new 0 0 16 16" height="16px" id="Layer_4" version="1.1" viewBox="0 0 48 48" width="16px" xml:space="preserve" xmlns="http://www.w3.org/2000/svg" xmlns:xlink="http://www.w3.org/1999/xlink"><g><path d="M26.465,37.125L14.402,22.062h9.036C24.515,9.7,34.885,0,47.527,0C47.686,0,47.842,0.009,48,0.012   C37.539,2.194,29.575,11.137,28.849,22.062h9.554L26.465,37.125z" fill="#241F20"/><path d="M44,5v3v11.232v0.83v4.769v2.419V44H4V4h17h3h3.812c0,0,4.126-2.812,7.188-4h-6.666H21H0v48h48V27.25   v-5.333v-1.854v-4V8V2.887c-0.333,0.069-0.654,0.168-0.981,0.252C44.994,3.791,44,5,44,5z" fill="#241F20"/></g></svg>